:version 1.10
:name ASF
:units
  mass 1
  length 1
  angle deg
:documentation
  ASF file generated by Kaydara
:root
  axis xyz
  order  tx ty tz rx ry rz
  position 0 0 0
  orientation 0 0 0
:bonedata
  begin
    id 1
    name RightUpLegDummy
    direction -1 2.30186e-007 8.31532e-007
    length 4.04083
    axis 0 0 0 xyz
  end
  begin
    id 2
    name RightUpLeg
    direction -0.000919234 -0.999985 0.00544864
    length 17.4221
    axis -3.80308 -0.00076134 -0.0523649 xyz
    dof rx ry rz
  end
  begin
    id 3
    name RightLeg
    direction -0.000919271 -0.999984 -0.00555045
    length 17.1239
    axis 4.00314 0.0181274 -0.183583 xyz
    dof rx ry rz
  end
  begin
    id 4
    name RightFoot
    direction -2.57843e-005 -4.04509e-007 1
    length 6.72091
    axis 8.18909e-005 -0.122003 -0.403008 xyz
    dof rx ry rz
  end
  begin
    id 5
    name RightToes
    direction 0.00116825 -0.014069 0.9999
    length 3.85082
    axis 0.000514414 0.540638 -0.356797 xyz
    dof rx ry rz
  end
  begin
    id 6
    name SpineDummy
    direction 0.0168869 0.966876 -0.254689
    length 6.99894
    axis 0 0 0 xyz
  end
  begin
    id 7
    name Spine
    direction -0.0132008 0.999903 0.00446247
    length 11.1999
    axis -0.00148109 0.00725429 0.756411 xyz
    dof rx ry rz
  end
  begin
    id 8
    name Spine1
    direction 0 0 0
    length 0
    axis -0.000934958 0.0245693 1.46543 xyz
    dof rx ry rz
  end
  begin
    id 9
    name HEadDummy
    direction -0.0255732 0.999672 0.00128215
    length 3.43865
    axis -0.000934958 0.0245693 1.46543 xyz
  end
  begin
    id 10
    name HEad
    direction -0.0472656 0.980052 0.19304
    length 5.12695
    axis -0.000934954 0.0245693 1.46543 xyz
    dof rx ry rz
  end
  begin
    id 11
    name LeftShoulder1Dummy
    direction 0.953098 0.301717 -0.023914
    length 3.68488
    axis -0.000934958 0.0245693 1.46543 xyz
  end
  begin
    id 12
    name LeftShoulder1
    direction 0.962466 0.271167 0.0112566
    length 3.13809
    axis -0.000934958 0.0245693 1.46543 xyz
    dof rx ry rz
  end
  begin
    id 13
    name LeftArm
    direction 0.999943 0.00455037 -0.00961766
    length 11.3419
    axis -23.1648 0.685459 1.22814 xyz
    dof rx ry rz
  end
  begin
    id 14
    name LeftForeArm
    direction 0.999332 0.0131969 0.0340885
    length 8.70632
    axis -9.90633 0.618216 0.0826942 xyz
    dof rx ry rz
  end
  begin
    id 15
    name LeftHand
    direction 0.994373 -0.0366703 0.0993905
    length 5.32135
    axis 0.00675269 0.680415 0.445699 xyz
    dof rx ry rz
  end
  begin
    id 16
    name RightShoulderDummy
    direction -0.967298 0.252589 -0.0230903
    length 3.68488
    axis -0.000934958 0.0245693 1.46543 xyz
  end
  begin
    id 17
    name RightShoulder
    direction -0.975062 0.221602 0.0120823
    length 3.13809
    axis 0.216257 0.0246515 1.45863 xyz
    dof rx ry rz
  end
  begin
    id 18
    name RightArm
    direction -0.99886 -0.00851186 -0.0469687
    length 10.3947
    axis -23.196 0.23503 -0.532632 xyz
    dof rx ry rz
  end
  begin
    id 19
    name RightForeArm
    direction -0.99909 0.00114866 0.0426317
    length 8.68355
    axis -9.91764 -0.134943 0.610517 xyz
    dof rx ry rz
  end
  begin
    id 20
    name RightHand
    direction -0.992888 -0.0489538 0.10852
    length 5.28593
    axis -0.00275396 -0.197403 0.246414 xyz
    dof rx ry rz
  end
  begin
    id 21
    name LeftUpLegDummy
    direction 1 -2.30186e-007 -8.31532e-007
    length 4.04083
    axis 0 0 0 xyz
  end
  begin
    id 22
    name LeftUpLeg
    direction -0.000920097 -1 2.79241e-006
    length 17.4221
    axis -3.48782 0.00143434 -0.0532288 xyz
    dof rx ry rz
  end
  begin
    id 23
    name LeftLeg
    direction -0.000920097 -1 2.7912e-006
    length 17.1239
    axis 3.68162 -0.00806512 -0.0529896 xyz
    dof rx ry rz
  end
  begin
    id 24
    name LeftFoot
    direction -2.57845e-005 -3.987e-007 1
    length 6.72091
    axis 3.02372e-005 -0.00147829 -0.214229 xyz
    dof rx ry rz
  end
  begin
    id 25
    name LeftToes
    direction 0.00813577 -0.00488255 0.999955
    length 3.85048
    axis 3.89895e-005 -0.0014783 -0.214229 xyz
    dof rx ry rz
  end
:hierarchy
  begin
    root RightUpLegDummy SpineDummy LeftUpLegDummy
    RightUpLegDummy RightUpLeg
    RightUpLeg RightLeg
    RightLeg RightFoot
    RightFoot RightToes
    SpineDummy Spine
    Spine Spine1
    Spine1 HEadDummy LeftShoulder1Dummy RightShoulderDummy
    HEadDummy HEad
    LeftShoulder1Dummy LeftShoulder1
    LeftShoulder1 LeftArm
    LeftArm LeftForeArm
    LeftForeArm LeftHand
    RightShoulderDummy RightShoulder
    RightShoulder RightArm
    RightArm RightForeArm
    RightForeArm RightHand
    LeftUpLegDummy LeftUpLeg
    LeftUpLeg LeftLeg
    LeftLeg LeftFoot
    LeftFoot LeftToes
  end

:SAMPLES-PER-SECOND 30
:FULLY-SPECIFIED
:DEGREES
86
root  -21.8878 33.3798 -15.1392 -157.479 -5.39716 -177.703
RightUpLeg  -42.2666 -20.3684 5.77836
RightLeg  36.21 -4.91109 -3.1417
RightFoot  -6.11244 0.0150833 0.866141
RightToes  -25.6231 -0.114972 -0.220424
Spine  2.64548 1.66106 -3.28932
Spine1  4.94867 3.6934 -6.04565
HEad  -62.202 11.3571 -10.8791
LeftShoulder1  -1.94126e-019 -3.10601e-018 -2.51263e-017
LeftArm  -15.6147 9.8423 -68.5627
LeftForeArm  24.7462 -27.379 -4.50635
LeftHand  -0.412835 0.0269807 9.00232
RightShoulder  -4.96962e-017 0 -2.36833e-017
RightArm  -8.45427 -6.48338 76.9147
RightForeArm  52.2193 32.9032 4.33559
RightHand  -0.363774 -0.521238 -8.66678
LeftUpLeg  -45.815 6.10244 4.45874
LeftLeg  35.4142 4.67956 2.88259
LeftFoot  0.64712 -0.00234746 0.221489
LeftToes  -26.1292 2.03064e-006 1.83538e-008
87
root  -21.8873 33.4144 -15.0173 -156.517 -4.79005 -177.449
RightUpLeg  -44.906 -20.4727 9.01017
RightLeg  35.3364 -4.00839 -2.48338
RightFoot  -6.74012 0.0124564 0.787217
RightToes  -27.3554 -0.126141 -0.233172
Spine  2.90344 1.57938 -3.55833
Spine1  5.42076 3.56503 -6.59685
HEad  -62.6578 11.5182 -11.3506
LeftShoulder1  -1.94126e-019 -3.10601e-018 -2.51263e-017
LeftArm  -14.6548 7.42387 -66.946
LeftForeArm  24.7608 -26.3778 -4.2812
LeftHand  -0.421434 0.199516 9.47881
RightShoulder  -4.96962e-017 0 -2.36833e-017
RightArm  -6.54644 -5.08731 76.7294
RightForeArm  51.7358 34.8431 4.81103
RightHand  -0.365261 -0.583754 -8.80921
LeftUpLeg  -46.8329 7.38336 4.10044
LeftLeg  35.2062 4.16906 2.54778
LeftFoot  0.805893 -0.0027704 0.229215
LeftToes  -25.987 2.03064e-006 1.83538e-008
88
root  -21.8516 33.4074 -14.8704 -155.594 -4.38232 -177.238
RightUpLeg  -47.0025 -19.168 11.163
RightLeg  34.3837 -1.75315 -1.0558
RightFoot  -6.9203 -0.00609751 0.458691
RightToes  -27.4178 -0.12655 -0.233625
Spine  3.26213 1.51745 -3.78129
Spine1  6.08108 3.49579 -7.07729
HEad  -62.9741 11.5614 -11.6048
LeftShoulder1  -1.94126e-019 -3.10601e-018 -2.51263e-017
LeftArm  -13.4999 4.69428 -65.4425
LeftForeArm  24.547 -25.382 -4.07378
LeftHand  -0.421334 0.0512774 9.22664
RightShoulder  -4.96962e-017 0 -2.36833e-017
RightArm  -4.02836 -3.37273 76.1196
RightForeArm  50.5394 36.3855 5.24175
RightHand  -0.344114 -0.907898 -8.86145
LeftUpLeg  -48.108 8.69449 3.66242
LeftLeg  35.3367 3.4569 2.12344
LeftFoot  0.966581 -0.0026875 0.229718
LeftToes  -26.1413 2.03064e-006 1.83538e-008
89
root  -21.7637 33.3538 -14.7308 -154.916 -4.35474 -176.965
RightUpLeg  -47.939 -16.0779 11.459
RightLeg  33.5828 1.18139 0.664987
RightFoot  -5.59606 -0.0238415 0.0536049
RightToes  -21.4747 -0.089831 -0.188572
Spine  3.79076 1.44517 -3.82145
Spine1  7.08037 3.4114 -7.19691
HEad  -63.0921 11.4947 -11.7001
LeftShoulder1  -1.94126e-019 -3.10601e-018 -2.51263e-017
LeftArm  -12.7864 1.66793 -64.4423
LeftForeArm  24.7121 -23.9381 -3.7535
LeftHand  -0.421716 -0.0327316 9.09938
RightShoulder  -4.96962e-017 0 -2.36833e-017
RightArm  -2.46064 -1.35077 75.4217
RightForeArm  49.8753 37.1507 5.46024
RightHand  -0.338387 -0.870775 -8.64466
LeftUpLeg  -49.4641 9.32912 3.67783
LeftLeg  36.007 3.0268 1.90803
LeftFoot  1.02278 -0.00229571 0.224694
LeftToes  -26.0235 2.03064e-006 1.83538e-008
90
root  -21.6374 33.2483 -14.6033 -154.376 -4.78294 -176.762
RightUpLeg  -48.1295 -12.2257 10.1567
RightLeg  33.0396 -0.00434963 -0.0159872
RightFoot  -2.53836 -0.00832526 0.186012
RightToes  -18.5433 -0.0734879 -0.165008
Spine  4.41011 1.34155 -3.74387
Spine1  8.26069 3.25498 -7.08093
HEad  -62.7248 11.2679 -11.5256
LeftShoulder1  -1.94126e-019 -3.10601e-018 -2.51263e-017
LeftArm  -11.8767 -1.61112 -63.7797
LeftForeArm  24.7763 -22.3447 -3.41539
LeftHand  -0.412419 0.0327744 9.00249
RightShoulder  -4.96962e-017 0 -2.36833e-017
RightArm  -1.21786 0.888462 74.5933
RightForeArm  49.1117 37.0334 5.45868
RightHand  -0.337427 -0.793533 -8.61596
LeftUpLeg  -51.0308 9.5891 3.81782
LeftLeg  37.1902 2.55305 1.68338
LeftFoot  0.981293 -0.00143363 0.210268
LeftToes  -25.8126 2.03064e-006 1.83538e-008
